<?xml version="1.0" standalone="no"?><!DOCTYPE svg PUBLIC "-//W3C//DTD SVG 1.1//EN" "http://www.w3.org/Graphics/SVG/1.1/DTD/svg11.dtd"><svg t="1652769812213" class="icon" viewBox="0 0 1024 1024" version="1.1" xmlns="http://www.w3.org/2000/svg" p-id="1957" xmlns:xlink="http://www.w3.org/1999/xlink" width="16" height="16"><defs><style type="text/css">@font-face { font-family: feedback-iconfont; src: url("//at.alicdn.com/t/font_1031158_u69w8yhxdu.woff2?t=1630033759944") format("woff2"), url("//at.alicdn.com/t/font_1031158_u69w8yhxdu.woff?t=1630033759944") format("woff"), url("//at.alicdn.com/t/font_1031158_u69w8yhxdu.ttf?t=1630033759944") format("truetype"); }
</style></defs><path d="M557.2 512l233.4-233.4c12.5-12.5 12.5-32.8 0-45.2s-32.8-12.5-45.2 0L512 466.8 278.6 233.4c-12.5-12.5-32.8-12.5-45.2 0s-12.5 32.8 0 45.2L466.8 512 233.4 745.4c-12.5 12.5-12.5 32.8 0 45.2 6.2 6.2 14.4 9.4 22.6 9.4s16.4-3.1 22.6-9.4L512 557.2l233.4 233.4c6.2 6.2 14.4 9.4 22.6 9.4s16.4-3.1 22.6-9.4c12.5-12.5 12.5-32.8 0-45.2L557.2 512z" p-id="1958"></path></svg>